<svg width="644.4125px" height="125.740478515625px" xmlns="http://www.w3.org/2000/svg" viewBox="-72.20625000000001 12.1297607421875 644.4125 125.740478515625" style="background: rgb(253, 253, 253);" preserveAspectRatio="xMidYMid"><defs><filter id="editing-hole" x="-100%" y="-100%" width="300%" height="300%"><feFlood flood-color="#bbcedd" result="black"></feFlood><feMorphology operator="dilate" radius="2" in="SourceGraphic" result="erode"></feMorphology><feGaussianBlur in="erode" stdDeviation="4" result="blur"></feGaussianBlur><feOffset in="blur" dx="2" dy="2" result="offset"></feOffset><feComposite operator="atop" in="offset" in2="black" result="merge"></feComposite><feComposite operator="in" in="merge" in2="SourceGraphic" result="inner-shadow"></feComposite></filter></defs><g filter="url(#editing-hole)"><g transform="translate(19.05498456954956, 107.40165328979492)"><path d="M2.56-5.70L2.56-41.28L2.56-41.28Q2.56-42.75 2.66-43.49L2.66-43.49L2.66-43.49Q2.75-44.22 3.26-45.18L3.26-45.18L3.26-45.18Q4.16-46.91 8.26-46.91L8.26-46.91L8.26-46.91Q12.74-46.91 13.57-44.54L13.57-44.54L13.57-44.54Q13.89-43.46 13.89-41.22L13.89-41.22L13.89-5.63L13.89-5.63Q13.89-4.10 13.79-3.39L13.79-3.39L13.79-3.39Q13.70-2.69 13.18-1.73L13.18-1.73L13.18-1.73Q12.29 0 8.19 0L8.19 0L8.19 0Q3.71 0 2.94-2.43L2.94-2.43L2.94-2.43Q2.56-3.46 2.56-5.70L2.56-5.70ZM30.02-29.25L30.02-29.25L30.02-29.25Q33.02-33.79 37.25-33.79L37.25-33.79L37.25-33.79Q43.78-33.79 46.98-28.22L46.98-28.22L46.98-28.22Q47.68-29.18 48.67-30.24L48.67-30.24L48.67-30.24Q49.66-31.30 51.84-32.54L51.84-32.54L51.84-32.54Q54.02-33.79 56.32-33.79L56.32-33.79L56.32-33.79Q61.44-33.79 64.90-29.86L64.90-29.86L64.90-29.86Q68.35-25.92 68.35-16.83L68.35-16.83L68.35-5.63L68.35-5.63Q68.35-4.16 68.26-3.42L68.26-3.42L68.26-3.42Q68.16-2.69 67.65-1.73L67.65-1.73L67.65-1.73Q66.82 0 62.72 0L62.72 0L62.72 0Q58.69 0 57.79-1.79L57.79-1.79L57.79-1.79Q57.34-2.75 57.25-3.49L57.25-3.49L57.25-3.49Q57.15-4.22 57.15-5.70L57.15-5.70L57.15-16.90L57.15-16.90Q57.15-22.46 53.18-22.46L53.18-22.46L53.18-22.46Q50.94-22.46 50.14-20.99L50.14-20.99L50.14-20.99Q49.34-19.52 49.34-16.83L49.34-16.83L49.34-5.63L49.34-5.63Q49.34-4.10 49.25-3.39L49.25-3.39L49.25-3.39Q49.15-2.69 48.64-1.73L48.64-1.73L48.64-1.73Q47.74 0 43.65 0L43.65 0L43.65 0Q39.62 0 38.72-1.79L38.72-1.79L38.72-1.79Q38.27-2.75 38.18-3.49L38.18-3.49L38.18-3.49Q38.08-4.22 38.08-5.70L38.08-5.70L38.08-16.90L38.08-16.90Q38.08-22.46 34.11-22.46L34.11-22.46L34.11-22.46Q30.27-22.46 30.27-16.90L30.27-16.90L30.27-5.57L30.27-5.57Q30.27-4.10 30.18-3.36L30.18-3.36L30.18-3.36Q30.08-2.62 29.57-1.66L29.57-1.66L29.57-1.66Q28.61 0 24.58 0L24.58 0L24.58 0Q20.54 0 19.65-1.73L19.65-1.73L19.65-1.73Q19.20-2.69 19.10-3.39L19.10-3.39L19.10-3.39Q19.01-4.10 19.01-5.63L19.01-5.63L19.01-28.16L19.01-28.16Q19.01-29.63 19.10-30.37L19.10-30.37L19.10-30.37Q19.20-31.10 19.71-32L19.71-32L19.71-32Q20.67-33.73 24.26-33.73L24.26-33.73L24.26-33.73Q27.84-33.73 28.93-32.58L28.93-32.58L28.93-32.58Q30.02-31.42 30.02-29.25ZM95.36-30.14L95.36-30.14L95.36-30.14Q95.74-33.73 100.42-33.73L100.42-33.73L100.42-33.73Q102.91-33.73 104.13-33.34L104.13-33.34L104.13-33.34Q105.34-32.96 105.82-32L105.82-32L105.82-32Q106.30-31.04 106.40-30.30L106.40-30.30L106.40-30.30Q106.50-29.57 106.50-28.10L106.50-28.10L106.50-5.70L106.50-5.70Q106.50-4.22 106.40-3.49L106.40-3.49L106.40-3.49Q106.30-2.75 105.86-1.79L105.86-1.79L105.86-1.79Q104.96-0.13 101.47-0.13L101.47-0.13L101.47-0.13Q97.98-0.13 96.80-0.99L96.80-0.99L96.80-0.99Q95.62-1.86 95.42-3.52L95.42-3.52L95.42-3.52Q93.06-0.13 87.52-0.13L87.52-0.13L87.52-0.13Q81.98-0.13 77.25-5.18L77.25-5.18L77.25-5.18Q72.51-10.24 72.51-16.93L72.51-16.93L72.51-16.93Q72.51-23.62 77.28-28.64L77.28-28.64L77.28-28.64Q82.05-33.66 87.74-33.66L87.74-33.66L87.74-33.66Q89.92-33.66 91.71-32.90L91.71-32.90L91.71-32.90Q93.50-32.13 94.21-31.46L94.21-31.46L94.21-31.46Q94.91-30.78 95.36-30.14ZM83.71-16.83L83.71-16.83L83.71-16.83Q83.71-14.72 85.38-13.02L85.38-13.02L85.38-13.02Q87.04-11.33 89.41-11.33L89.41-11.33L89.41-11.33Q91.78-11.33 93.34-13.06L93.34-13.06L93.34-13.06Q94.91-14.78 94.91-16.86L94.91-16.86L94.91-16.86Q94.91-18.94 93.41-20.74L93.41-20.74L93.41-20.74Q91.90-22.53 89.38-22.53L89.38-22.53L89.38-22.53Q86.85-22.53 85.28-20.74L85.28-20.74L85.28-20.74Q83.71-18.94 83.71-16.83ZM132.99-2.30L132.99-4.22L132.99-4.22Q130.56-1.02 125.25-1.02L125.25-1.02L125.25-1.02Q119.94-1.02 115.30-5.92L115.30-5.92L115.30-5.92Q110.66-10.82 110.66-17.34L110.66-17.34L110.66-17.34Q110.66-23.87 115.33-28.80L115.33-28.80L115.33-28.80Q120.00-33.73 125.57-33.73L125.57-33.73L125.57-33.73Q127.74-33.73 129.54-32.93L129.54-32.93L129.54-32.93Q131.33-32.13 132-31.46L132-31.46L132-31.46Q132.67-30.78 133.06-30.21L133.06-30.21L133.06-30.21Q133.25-32 134.37-32.93L134.37-32.93L134.37-32.93Q135.49-33.86 137.98-33.86L137.98-33.86L137.98-33.86Q140.48-33.86 141.63-33.47L141.63-33.47L141.63-33.47Q142.78-33.09 143.26-32.16L143.26-32.16L143.26-32.16Q143.74-31.23 143.84-30.53L143.84-30.53L143.84-30.53Q143.94-29.82 143.94-28.35L143.94-28.35L143.94-1.86L143.94-1.86Q143.94 5.50 138.82 10.02L138.82 10.02L138.82 10.02Q133.70 14.53 127.30 14.53L127.30 14.53L127.30 14.53Q122.43 14.53 118.02 12.16L118.02 12.16L118.02 12.16Q113.60 9.79 113.60 7.87L113.60 7.87L113.60 7.87Q113.60 5.38 115.52 3.46L115.52 3.46L115.52 3.46Q116.74 2.11 117.41 1.60L117.41 1.60L117.41 1.60Q118.08 1.09 118.98 1.09L118.98 1.09L118.98 1.09Q119.87 1.09 120.83 1.86L120.83 1.86L120.83 1.86Q123.90 4.22 127.49 4.22L127.49 4.22L127.49 4.22Q129.92 4.22 131.46 2.30L131.46 2.30L131.46 2.30Q132.99 0.38 132.99-2.30L132.99-2.30ZM121.60-17.31L121.60-17.31L121.60-17.31Q121.60-15.23 123.23-13.57L123.23-13.57L123.23-13.57Q124.86-11.90 127.20-11.90L127.20-11.90L127.20-11.90Q129.54-11.90 131.07-13.60L131.07-13.60L131.07-13.60Q132.61-15.30 132.61-17.31L132.61-17.31L132.61-17.31Q132.61-19.33 131.14-21.09L131.14-21.09L131.14-21.09Q129.66-22.85 127.17-22.85L127.17-22.85L127.17-22.85Q124.67-22.85 123.14-21.12L123.14-21.12L123.14-21.12Q121.60-19.39 121.60-17.31ZM181.57-20.90L181.57-20.90L181.57-20.90Q181.57-16.96 179.62-15.07L179.62-15.07L179.62-15.07Q177.66-13.18 175.30-13.18L175.30-13.18L160.13-13.18L160.13-13.18Q160.13-11.39 162.24-10.18L162.24-10.18L162.24-10.18Q164.35-8.96 166.46-8.96L166.46-8.96L166.46-8.96Q170.18-8.96 172.29-9.73L172.29-9.73L172.99-9.98L172.99-9.98Q174.53-10.69 175.55-10.69L175.55-10.69L175.55-10.69Q177.60-10.69 179.07-7.81L179.07-7.81L179.07-7.81Q179.90-6.08 179.90-4.86L179.90-4.86L179.90-4.86Q179.90 0.83 166.27 0.83L166.27 0.83L166.27 0.83Q161.54 0.83 157.86-0.80L157.86-0.80L157.86-0.80Q154.18-2.43 152.13-5.12L152.13-5.12L152.13-5.12Q148.10-10.30 148.10-16.70L148.10-16.70L148.10-16.70Q148.10-24.77 153.31-29.60L153.31-29.60L153.31-29.60Q158.53-34.43 166.34-34.43L166.34-34.43L166.34-34.43Q175.23-34.43 179.39-28.16L179.39-28.16L179.39-28.16Q181.57-24.83 181.57-20.90ZM160-19.01L168.06-19.01L168.06-19.01Q170.50-19.01 170.50-21.06L170.50-21.06L170.50-21.06Q170.50-22.53 169.38-23.42L169.38-23.42L169.38-23.42Q168.26-24.32 166.18-24.32L166.18-24.32L166.18-24.32Q164.10-24.32 162.05-22.62L162.05-22.62L162.05-22.62Q160-20.93 160-19.01L160-19.01ZM185.98-3.01L185.98-3.01L185.98-3.01Q184.77-3.78 184.77-5.44L184.77-5.44L184.77-5.44Q184.77-7.10 187.20-10.50L187.20-10.50L187.20-10.50Q187.90-11.58 189.47-11.58L189.47-11.58L189.47-11.58Q191.04-11.58 193.73-10.02L193.73-10.02L193.73-10.02Q196.42-8.45 198.59-8.45L198.59-8.45L198.59-8.45Q202.50-8.45 202.50-9.98L202.50-9.98L202.50-9.98Q202.50-11.20 198.21-11.78L198.21-11.78L198.21-11.78Q194.18-12.35 190.21-14.78L190.21-14.78L190.21-14.78Q188.35-15.94 187.14-18.40L187.14-18.40L187.14-18.40Q185.92-20.86 185.92-24.26L185.92-24.26L185.92-24.26Q185.92-34.37 199.81-34.37L199.81-34.37L199.81-34.37Q204.35-34.37 209.15-32.19L209.15-32.19L209.15-32.19Q211.39-31.17 211.39-29.63L211.39-29.63L211.39-29.63Q211.39-28.10 209.98-25.86L209.98-25.86L209.98-25.86Q208.58-23.62 207.10-23.62L207.10-23.62L207.10-23.62Q206.34-23.62 204.26-24.58L204.26-24.58L204.26-24.58Q202.18-25.54 199.74-25.54L199.74-25.54L199.74-25.54Q195.97-25.54 195.97-24.13L195.97-24.13L195.97-24.13Q195.97-22.21 200.32-21.63L200.32-21.63L200.32-21.63Q204.54-21.18 208.51-19.20L208.51-19.20L208.51-19.20Q210.37-18.30 211.62-16.10L211.62-16.10L211.62-16.10Q212.86-13.89 212.86-10.56L212.86-10.56L212.86-10.56Q212.86-7.23 211.62-4.90L211.62-4.90L211.62-4.90Q210.37-2.56 208.13-1.41L208.13-1.41L208.13-1.41Q204.03 0.58 197.86 0.58L197.86 0.58L197.86 0.58Q191.68 0.58 185.98-3.01ZM257.66-28.29L257.66-28.29L268.93-28.29L268.93-28.29Q272.38-28.16 273.15-26.50L273.15-26.50L273.15-26.50Q273.79-25.28 273.79-22.91L273.79-22.91L273.79-8.83L273.79-8.83Q273.79-6.78 272-4.93L272-4.93L272-4.93Q266.62 0.64 255.87 0.64L255.87 0.64L255.87 0.64Q246.34 0.64 239.30-6.56L239.30-6.56L239.30-6.56Q232.26-13.76 232.26-23.94L232.26-23.94L232.26-23.94Q232.26-34.11 239.42-40.93L239.42-40.93L239.42-40.93Q246.59-47.74 256.32-47.74L256.32-47.74L256.32-47.74Q263.87-47.74 270.59-42.75L270.59-42.75L270.59-42.75Q272.32-41.47 272.32-39.90L272.32-39.90L272.32-39.90Q272.32-38.34 270.85-36.29L270.85-36.29L270.85-36.29Q268.35-32.90 266.30-32.90L266.30-32.90L266.30-32.90Q265.09-32.90 262.40-34.66L262.40-34.66L262.40-34.66Q259.71-36.42 256-36.42L256-36.42L256-36.42Q251.14-36.42 247.36-32.99L247.36-32.99L247.36-32.99Q243.58-29.57 243.58-24.03L243.58-24.03L243.58-24.03Q243.58-18.50 247.42-14.62L247.42-14.62L247.42-14.62Q251.26-10.75 256.13-10.75L256.13-10.75L256.13-10.75Q259.65-10.75 262.46-11.90L262.46-11.90L262.46-18.88L257.41-18.88L257.41-18.88Q255.42-18.88 254.59-19.39L254.59-19.39L254.59-19.39Q253.76-19.90 253.50-20.90L253.50-20.90L253.50-20.90Q253.25-21.89 253.25-23.58L253.25-23.58L253.25-23.58Q253.25-25.28 253.54-26.30L253.54-26.30L253.54-26.30Q253.82-27.33 254.59-27.71L254.59-27.71L254.59-27.71Q255.74-28.29 257.66-28.29ZM300.80-30.14L300.80-30.14L300.80-30.14Q301.18-33.73 305.86-33.73L305.86-33.73L305.86-33.73Q308.35-33.73 309.57-33.34L309.57-33.34L309.57-33.34Q310.78-32.96 311.26-32L311.26-32L311.26-32Q311.74-31.04 311.84-30.30L311.84-30.30L311.84-30.30Q311.94-29.57 311.94-28.10L311.94-28.10L311.94-5.70L311.94-5.70Q311.94-4.22 311.84-3.49L311.84-3.49L311.84-3.49Q311.74-2.75 311.30-1.79L311.30-1.79L311.30-1.79Q310.40-0.13 306.91-0.13L306.91-0.13L306.91-0.13Q303.42-0.13 302.24-0.99L302.24-0.99L302.24-0.99Q301.06-1.86 300.86-3.52L300.86-3.52L300.86-3.52Q298.50-0.13 292.96-0.13L292.96-0.13L292.96-0.13Q287.42-0.13 282.69-5.18L282.69-5.18L282.69-5.18Q277.95-10.24 277.95-16.93L277.95-16.93L277.95-16.93Q277.95-23.62 282.72-28.64L282.72-28.64L282.72-28.64Q287.49-33.66 293.18-33.66L293.18-33.66L293.18-33.66Q295.36-33.66 297.15-32.90L297.15-32.90L297.15-32.90Q298.94-32.13 299.65-31.46L299.65-31.46L299.65-31.46Q300.35-30.78 300.80-30.14ZM289.15-16.83L289.15-16.83L289.15-16.83Q289.15-14.72 290.82-13.02L290.82-13.02L290.82-13.02Q292.48-11.33 294.85-11.33L294.85-11.33L294.85-11.33Q297.22-11.33 298.78-13.06L298.78-13.06L298.78-13.06Q300.35-14.78 300.35-16.86L300.35-16.86L300.35-16.86Q300.35-18.94 298.85-20.74L298.85-20.74L298.85-20.74Q297.34-22.53 294.82-22.53L294.82-22.53L294.82-22.53Q292.29-22.53 290.72-20.74L290.72-20.74L290.72-20.74Q289.15-18.94 289.15-16.83ZM317.06-13.50L317.06-43.97L317.06-43.97Q317.06-45.44 317.15-46.18L317.15-46.18L317.15-46.18Q317.25-46.91 317.70-47.87L317.70-47.87L317.70-47.87Q318.59-49.60 322.69-49.60L322.69-49.60L322.69-49.60Q326.59-49.60 327.55-47.87L327.55-47.87L327.55-47.87Q328.06-46.91 328.16-46.14L328.16-46.14L328.16-46.14Q328.26-45.38 328.26-43.90L328.26-43.90L328.26-14.27L328.26-14.27Q328.26-11.97 328.64-11.36L328.64-11.36L328.64-11.36Q329.02-10.75 330.34-10.75L330.34-10.75L330.34-10.75Q331.65-10.75 332.10-10.66L332.10-10.66L332.10-10.66Q332.54-10.56 333.18-10.11L333.18-10.11L333.18-10.11Q334.46-9.28 334.46-5.57L334.46-5.57L334.46-5.57Q334.46-1.54 333.18-0.64L333.18-0.64L333.18-0.64Q331.52 0.51 325.25-0.26L325.25-0.26L325.25-0.26Q320.32-0.90 318.85-3.52L318.85-3.52L318.85-3.52Q317.06-6.66 317.06-13.50L317.06-13.50ZM337.98-13.50L337.98-43.97L337.98-43.97Q337.98-45.44 338.08-46.18L338.08-46.18L338.08-46.18Q338.18-46.91 338.62-47.87L338.62-47.87L338.62-47.87Q339.52-49.60 343.62-49.60L343.62-49.60L343.62-49.60Q347.52-49.60 348.48-47.87L348.48-47.87L348.48-47.87Q348.99-46.91 349.09-46.14L349.09-46.14L349.09-46.14Q349.18-45.38 349.18-43.90L349.18-43.90L349.18-14.27L349.18-14.27Q349.18-11.97 349.57-11.36L349.57-11.36L349.57-11.36Q349.95-10.75 351.26-10.75L351.26-10.75L351.26-10.75Q352.58-10.75 353.02-10.66L353.02-10.66L353.02-10.66Q353.47-10.56 354.11-10.11L354.11-10.11L354.11-10.11Q355.39-9.28 355.39-5.57L355.39-5.57L355.39-5.57Q355.39-1.54 354.11-0.64L354.11-0.64L354.11-0.64Q352.45 0.51 346.18-0.26L346.18-0.26L346.18-0.26Q341.25-0.90 339.78-3.52L339.78-3.52L339.78-3.52Q337.98-6.66 337.98-13.50L337.98-13.50ZM390.78-20.90L390.78-20.90L390.78-20.90Q390.78-16.96 388.83-15.07L388.83-15.07L388.83-15.07Q386.88-13.18 384.51-13.18L384.51-13.18L369.34-13.18L369.34-13.18Q369.34-11.39 371.46-10.18L371.46-10.18L371.46-10.18Q373.57-8.96 375.68-8.96L375.68-8.96L375.68-8.96Q379.39-8.96 381.50-9.73L381.50-9.73L382.21-9.98L382.21-9.98Q383.74-10.69 384.77-10.69L384.77-10.69L384.77-10.69Q386.82-10.69 388.29-7.81L388.29-7.81L388.29-7.81Q389.12-6.08 389.12-4.86L389.12-4.86L389.12-4.86Q389.12 0.83 375.49 0.83L375.49 0.83L375.49 0.83Q370.75 0.83 367.07-0.80L367.07-0.80L367.07-0.80Q363.39-2.43 361.34-5.12L361.34-5.12L361.34-5.12Q357.31-10.30 357.31-16.70L357.31-16.70L357.31-16.70Q357.31-24.77 362.53-29.60L362.53-29.60L362.53-29.60Q367.74-34.43 375.55-34.43L375.55-34.43L375.55-34.43Q384.45-34.43 388.61-28.16L388.61-28.16L388.61-28.16Q390.78-24.83 390.78-20.90ZM369.22-19.01L377.28-19.01L377.28-19.01Q379.71-19.01 379.71-21.06L379.71-21.06L379.71-21.06Q379.71-22.53 378.59-23.42L378.59-23.42L378.59-23.42Q377.47-24.32 375.39-24.32L375.39-24.32L375.39-24.32Q373.31-24.32 371.26-22.62L371.26-22.62L371.26-22.62Q369.22-20.93 369.22-19.01L369.22-19.01ZM417.86-33.34L417.86-33.34L417.86-33.34Q419.07-32.96 419.87-32.03L419.87-32.03L419.87-32.03Q420.67-31.10 420.67-29.06L420.67-29.06L420.67-29.06Q420.67-27.01 419.46-24.58L419.46-24.58L419.46-24.58Q418.24-22.14 415.94-22.14L415.94-22.14L415.94-22.14Q414.78-22.14 413.73-22.66L413.73-22.66L413.73-22.66Q412.67-23.17 410.94-23.17L410.94-23.17L410.94-23.17Q409.22-23.17 407.71-21.95L407.71-21.95L407.71-21.95Q406.21-20.74 406.21-19.01L406.21-19.01L406.21-5.57L406.21-5.57Q406.21-4.10 406.11-3.36L406.11-3.36L406.11-3.36Q406.02-2.62 405.50-1.66L405.50-1.66L405.50-1.66Q404.54 0 400.51 0L400.51 0L400.51 0Q397.44 0 396.10-1.09L396.10-1.09L396.10-1.09Q395.07-1.98 394.94-3.84L394.94-3.84L394.94-3.84Q394.94-4.48 394.94-5.70L394.94-5.70L394.94-28.16L394.94-28.16Q394.94-29.63 395.04-30.37L395.04-30.37L395.04-30.37Q395.14-31.10 395.58-32L395.58-32L395.58-32Q396.48-33.73 400.58-33.73L400.58-33.73L400.58-33.73Q404.42-33.73 405.38-32.26L405.38-32.26L405.38-32.26Q406.08-31.23 406.08-30.14L406.08-30.14L406.08-30.14Q406.40-30.59 407.01-31.23L407.01-31.23L407.01-31.23Q407.62-31.87 409.60-32.96L409.60-32.96L409.60-32.96Q411.58-34.05 413.09-34.05L413.09-34.05L413.09-34.05Q414.59-34.05 415.62-33.89L415.62-33.89L415.62-33.89Q416.64-33.73 417.86-33.34ZM455.55-33.34L455.55-33.34L455.55-33.34Q459.33-31.68 459.33-29.31L459.33-29.31L459.33-29.31Q459.33-28.16 458.82-27.14L458.82-27.14L458.82-27.14Q458.30-26.11 458.30-26.05L458.30-26.05L441.54 11.46L441.54 11.46Q441.02 12.67 440.67 13.31L440.67 13.31L440.67 13.31Q440.32 13.95 439.55 14.53L439.55 14.53L439.55 14.53Q438.78 15.10 437.63 15.10L437.63 15.10L437.63 15.10Q436.48 15.10 434.24 14.14L434.24 14.14L434.24 14.14Q430.46 12.48 430.46 10.18L430.46 10.18L430.46 10.18Q430.46 8.64 436.61-4.48L436.61-4.48L423.87-25.92L423.87-25.92Q422.59-28.03 422.59-29.06L422.59-29.06L422.59-29.06Q422.59-31.10 426.05-33.15L426.05-33.15L426.05-33.15Q428.22-34.43 429.44-34.43L429.44-34.43L429.44-34.43Q430.66-34.43 431.42-33.92L431.42-33.92L431.42-33.92Q432.19-33.41 432.54-32.86L432.54-32.86L432.54-32.86Q432.90-32.32 436.06-26.91L436.06-26.91L436.06-26.91Q439.23-21.50 442.11-16.83L442.11-16.83L442.11-16.83Q442.43-17.86 445.57-24.74L445.57-24.74L445.57-24.74Q448.70-31.62 448.93-32.06L448.93-32.06L448.93-32.06Q449.15-32.51 449.66-33.15L449.66-33.15L449.66-33.15Q450.50-34.24 452-34.24L452-34.24L452-34.24Q453.50-34.24 455.55-33.34Z" fill="#7d9e77"></path></g></g><style>text {
  font-size: 64px;
  font-family: Arial Black;
  dominant-baseline: central;
  text-anchor: middle;
}</style></svg>